<svg width="20" height="14" viewBox="0 0 20 14" fill="none" xmlns="http://www.w3.org/2000/svg">
<path d="M8.145 6.62298C8.30583 5.4685 8.285 4.86506 6.67167 4.9585C4.81917 5.06679 2.94167 5.18992 0.130833 5.85536C0.0445225 6.23029 0.00060952 6.61456 0 7.00024C0 8.32763 0.515 9.61135 1.48917 10.7152C2.3725 11.7142 3.61917 12.5447 5.09417 13.1185C5.64189 13.3292 6.20262 13.5008 6.7725 13.632C6.88083 13.1717 7.57167 10.22 8.11917 6.80026L8.14417 6.62385M19.8692 5.85536C17.0592 5.18992 15.1825 5.06766 13.3308 4.95938C11.7167 4.86593 11.6958 5.46937 11.8575 6.62385L11.8958 6.88409C12.4375 10.2445 13.1108 13.1368 13.2275 13.6258C17.1625 12.6836 20 10.0707 20 7.00024C20 6.61337 19.955 6.23175 19.8692 5.85536M19.46 4.69914C19.2073 4.18435 18.8875 3.70882 18.51 3.28616C17.6267 2.28713 16.3808 1.45664 14.9058 0.882889C13.4192 0.304776 11.7225 0 10 0C8.27667 0 6.58083 0.305649 5.09417 0.882016C3.61917 1.45664 2.3725 2.288 1.48917 3.28616C1.11192 3.70919 0.792488 4.18501 0.54 4.70001C2.46 4.21359 5.74417 3.57086 8.79333 3.50361C9.0875 3.49663 9.29 3.59531 9.42333 3.77171C9.58667 3.98828 9.57333 4.75677 9.56917 5.10085L9.4825 13.9909C9.82796 14.003 10.1737 14.003 10.5192 13.9909L10.4325 5.10085C10.4283 4.75677 10.4158 3.98828 10.5783 3.77171C10.7117 3.59531 10.9142 3.49663 11.2083 3.50274C14.2567 3.57085 17.5392 4.21272 19.46 4.69914V4.69914Z" fill="#486AAE"/>
</svg>
